<svg xmlns="http://www.w3.org/2000/svg" viewBox="0 0 480 96" width="480" height="96">
  <defs>
    <linearGradient id="tbL" x1="0%" y1="0%" x2="100%" y2="100%">
      <stop offset="0%"   stop-color="#3B9EF0"/>
      <stop offset="100%" stop-color="#004E8C"/>
    </linearGradient>
    <linearGradient id="tbD" x1="0%" y1="0%" x2="100%" y2="100%">
      <stop offset="0%"   stop-color="#4AADFF"/>
      <stop offset="100%" stop-color="#00468A"/>
    </linearGradient>
    <linearGradient id="micaTbL" x1="0%" y1="0%" x2="0%" y2="100%">
      <stop offset="0%"   stop-color="#F3F8FD"/>
      <stop offset="100%" stop-color="#EBF2F9"/>
    </linearGradient>
    <linearGradient id="micaTbD" x1="0%" y1="0%" x2="0%" y2="100%">
      <stop offset="0%"   stop-color="#1E1E26"/>
      <stop offset="100%" stop-color="#1A1A22"/>
    </linearGradient>
    <filter id="iSL"><feDropShadow dx="0" dy="2" stdDeviation="4" flood-color="#0078D4" flood-opacity="0.25"/></filter>
    <filter id="iSD">
      <feDropShadow dx="0" dy="2" stdDeviation="4" flood-color="#60CDFF" flood-opacity="0.18"/>
      <feDropShadow dx="0" dy="2" stdDeviation="3" flood-color="#000"    flood-opacity="0.3"/>
    </filter>
    <filter id="gT"><feGaussianBlur stdDeviation="1" result="b"/><feMerge><feMergeNode in="b"/><feMergeNode in="SourceGraphic"/></feMerge></filter>
    <clipPath id="cL"><rect x="6" y="7"  width="32" height="32" rx="8"/></clipPath>
    <clipPath id="cD"><rect x="6" y="55" width="32" height="32" rx="8"/></clipPath>
  </defs>

  <!-- LIGHT -->
  <rect x="0" y="0" width="480" height="44" rx="10" fill="url(#micaTbL)"/>
  <rect x="0" y="0" width="480" height="1" fill="white" opacity="0.9"/>
  <rect x="0" y="43" width="480" height="1" fill="#C0D4E8" opacity="0.5"/>
  <rect x="6" y="7" width="32" height="32" rx="8" fill="url(#tbL)" filter="url(#iSL)"/>
  <rect x="6" y="7" width="32" height="16" rx="8" fill="white" opacity="0.10" clip-path="url(#cL)"/>
  <path d="M11 16 A8 8 0 0 0 11 30" fill="none" stroke="white" stroke-width="1.5" stroke-linecap="round" opacity="0.52" filter="url(#gT)"/>
  <path d="M15 20 A4 4 0 0 0 15 26" fill="none" stroke="white" stroke-width="1.5" stroke-linecap="round" opacity="0.78" filter="url(#gT)"/>
  <path d="M33 16 A8 8 0 0 1 33 30" fill="none" stroke="white" stroke-width="1.5" stroke-linecap="round" opacity="0.52" filter="url(#gT)"/>
  <path d="M29 20 A4 4 0 0 1 29 26" fill="none" stroke="white" stroke-width="1.5" stroke-linecap="round" opacity="0.78" filter="url(#gT)"/>
  <rect x="20" y="18" width="4" height="10" rx="1.2" fill="white" opacity="0.92"/>
  <rect x="17" y="21" width="10" height="4" rx="1.2" fill="white" opacity="0.92"/>
  <circle cx="22" cy="23" r="2.5" fill="#60CDFF" opacity="0.92"/>
  <circle cx="22" cy="23" r="1.3" fill="white"   opacity="0.98"/>
  <rect x="46" y="10" width="1" height="24" rx="0.5" fill="#B0C8DE" opacity="0.6"/>
  <text x="55" y="22"  font-family="'Segoe UI Variable Display','Segoe UI',system-ui,sans-serif" font-size="13.5" font-weight="700" letter-spacing="-0.2" fill="#0067BD">Radyoloji</text>
  <text x="55" y="37"  font-family="'Segoe UI Variable Text','Segoe UI',system-ui,sans-serif"    font-size="10.5" font-weight="400"                    fill="#3A6080">Envanter ve Personel Yönetim Sistemi</text>
  <rect x="392" y="13" width="80" height="18" rx="9" fill="#0078D4" fill-opacity="0.08" stroke="#0078D4" stroke-width="0.75" stroke-opacity="0.28"/>
  <text x="432" y="26" font-family="'Segoe UI',system-ui,sans-serif" font-size="9" font-weight="700" letter-spacing="1.8" text-anchor="middle" fill="#0067BD" opacity="0.85">REPYS</text>

  <!-- DARK -->
  <rect x="0" y="48" width="480" height="48" rx="10" fill="url(#micaTbD)"/>
  <rect x="0" y="48" width="480" height="1"  fill="white" opacity="0.07"/>
  <rect x="0.5" y="48.5" width="479" height="43" rx="9.5" fill="none" stroke="white" stroke-width="0.5" opacity="0.05"/>
  <rect x="6" y="55" width="32" height="32" rx="8" fill="url(#tbD)" filter="url(#iSD)"/>
  <rect x="6" y="55" width="32" height="16" rx="8" fill="white" opacity="0.07" clip-path="url(#cD)"/>
  <path d="M11 64 A8 8 0 0 0 11 78" fill="none" stroke="white" stroke-width="1.5" stroke-linecap="round" opacity="0.50" filter="url(#gT)"/>
  <path d="M15 68 A4 4 0 0 0 15 74" fill="none" stroke="white" stroke-width="1.5" stroke-linecap="round" opacity="0.75" filter="url(#gT)"/>
  <path d="M33 64 A8 8 0 0 1 33 78" fill="none" stroke="white" stroke-width="1.5" stroke-linecap="round" opacity="0.50" filter="url(#gT)"/>
  <path d="M29 68 A4 4 0 0 1 29 74" fill="none" stroke="white" stroke-width="1.5" stroke-linecap="round" opacity="0.75" filter="url(#gT)"/>
  <rect x="20" y="66" width="4" height="10" rx="1.2" fill="white" opacity="0.88"/>
  <rect x="17" y="69" width="10" height="4" rx="1.2" fill="white" opacity="0.88"/>
  <circle cx="22" cy="71" r="3"   fill="#60CDFF" opacity="0.88" filter="url(#gT)"/>
  <circle cx="22" cy="71" r="1.5" fill="white"   opacity="0.98"/>
  <rect x="46" y="58" width="1" height="24" rx="0.5" fill="white" opacity="0.10"/>
  <text x="55" y="70"  font-family="'Segoe UI Variable Display','Segoe UI',system-ui,sans-serif" font-size="13.5" font-weight="700" letter-spacing="-0.2" fill="#E8F4FF">Radyoloji</text>
  <text x="55" y="85"  font-family="'Segoe UI Variable Text','Segoe UI',system-ui,sans-serif"    font-size="10.5" font-weight="400"                    fill="#7AAAC8">Envanter ve Personel Yönetim Sistemi</text>
  <rect x="392" y="61" width="80" height="18" rx="9" fill="#60CDFF" fill-opacity="0.07" stroke="#60CDFF" stroke-width="0.75" stroke-opacity="0.20"/>
  <text x="432" y="74" font-family="'Segoe UI',system-ui,sans-serif" font-size="9" font-weight="700" letter-spacing="1.8" text-anchor="middle" fill="#60CDFF" opacity="0.70">REPYS</text>
</svg>
